<svg width="25" height="25" viewBox="0 0 25 25" fill="none" xmlns="http://www.w3.org/2000/svg">
<path d="M12.9189 2.52222C11.6057 2.52222 10.3054 2.78087 9.09211 3.28342C7.87885 3.78597 6.77646 4.52256 5.84788 5.45115C3.97251 7.32651 2.91895 9.87005 2.91895 12.5222C2.91895 16.9422 5.78895 20.6922 9.75895 22.0222C10.2589 22.1022 10.4189 21.7922 10.4189 21.5222C10.4189 21.2922 10.4189 20.6622 10.4189 19.8322C7.64895 20.4322 7.05895 18.4922 7.05895 18.4922C6.59895 17.3322 5.94895 17.0222 5.94895 17.0222C5.03895 16.4022 6.01895 16.4222 6.01895 16.4222C7.01895 16.4922 7.54895 17.4522 7.54895 17.4522C8.41895 18.9722 9.88895 18.5222 10.4589 18.2822C10.5489 17.6322 10.8089 17.1922 11.0889 16.9422C8.86895 16.6922 6.53895 15.8322 6.53895 12.0222C6.53895 10.9122 6.91895 10.0222 7.56895 9.31222C7.46895 9.06222 7.11895 8.02222 7.66895 6.67222C7.66895 6.67222 8.50895 6.40222 10.4189 7.69222C11.2089 7.47222 12.0689 7.36222 12.9189 7.36222C13.7689 7.36222 14.6289 7.47222 15.4189 7.69222C17.3289 6.40222 18.1689 6.67222 18.1689 6.67222C18.7189 8.02222 18.3689 9.06222 18.2689 9.31222C18.9189 10.0222 19.2989 10.9122 19.2989 12.0222C19.2989 15.8422 16.9589 16.6822 14.7289 16.9322C15.0889 17.2422 15.4189 17.8522 15.4189 18.7822C15.4189 20.1222 15.4189 21.2022 15.4189 21.5222C15.4189 21.7922 15.5789 22.1122 16.0889 22.0222C20.0589 20.6822 22.9189 16.9422 22.9189 12.5222C22.9189 11.209 22.6603 9.90864 22.1577 8.69538C21.6552 7.48213 20.9186 6.37973 19.99 5.45115C19.0614 4.52256 17.959 3.78597 16.7458 3.28342C15.5325 2.78087 14.2322 2.52222 12.9189 2.52222Z" fill="#106CA8"/>
</svg>
